<svg width="64" height="64" viewBox="0 0 64 64" fill="none" xmlns="http://www.w3.org/2000/svg">
<path fill-rule="evenodd" clip-rule="evenodd" d="M30.8069 5.79199C47.8217 5.79199 61.6137 16.6948 61.6137 30.1463C61.6137 43.5954 47.8217 54.5006 30.8069 54.5006C28.8526 54.5006 26.9417 54.3566 25.088 54.08L19.9771 57.5543L19.0194 58.2057C16.1646 60.1486 13.5314 61.936 13.232 62.1348C12.5577 62.5851 11.5269 62.608 11.9429 60.9326C12.2811 59.584 13.9703 53.2731 14.6149 50.8663C5.84457 46.5737 0 38.9006 0 30.1463C0 16.6948 13.792 5.79199 30.8069 5.79199ZM44.0434 22.7566C43.1246 22.7566 42.3817 23.5017 42.3817 24.4206V36.6651C42.3817 37.5863 43.1246 38.3291 44.0434 38.3291C44.9623 38.3291 45.7051 37.5863 45.7051 36.6651V32.8868L46.656 31.9406L51.0697 37.7348C51.5634 38.3908 52.496 38.5257 53.152 38.032C53.808 37.5383 53.9406 36.6057 53.4491 35.9474L48.7794 29.8171L52.9966 25.5977C53.568 25.0263 53.568 24.0983 52.9966 23.5291C52.4251 22.9577 51.4994 22.9577 50.928 23.5291L45.7051 28.7497V24.4206C45.7051 23.5017 44.9623 22.7566 44.0434 22.7566ZM24.6949 22.7566C23.5977 22.7566 22.6926 23.4263 22.512 24.304C22.4823 24.368 22.4503 24.4343 22.4251 24.5051L18.0114 36.3451C17.7371 37.1223 18.1486 37.9726 18.9211 38.2446C19.6983 38.5188 20.5486 38.1074 20.8206 37.3348L21.584 35.152H27.7303L28.4937 37.3348C28.768 38.1097 29.616 38.5188 30.3909 38.2446C31.168 37.9726 31.5749 37.1246 31.3051 36.3474L26.8114 24.064L26.7954 24.0503C26.5074 23.3028 25.6823 22.7566 24.6949 22.7566ZM18.4091 22.9737H9.40114C8.55543 22.9737 7.86971 23.6594 7.86971 24.5051C7.86971 25.3508 8.55543 26.0366 9.40114 26.0366H12.3291V36.8297C12.3291 37.2228 12.4891 37.6068 12.7703 37.888C13.0446 38.1646 13.4309 38.3246 13.824 38.3246H14.1509C14.544 38.3246 14.928 38.1646 15.2023 37.888C15.4834 37.6091 15.6434 37.2251 15.6434 36.8297V26.0388H18.4091C19.2571 26.0388 19.9429 25.3531 19.9429 24.5051C19.9429 23.6594 19.2571 22.9737 18.4114 22.9737H18.4091ZM34.2103 22.7566C33.2914 22.7566 32.5463 23.5017 32.5463 24.4206V36.3017C32.5463 36.3931 32.56 36.48 32.5737 36.5668C32.5577 36.6537 32.5463 36.7428 32.5463 36.832C32.5463 37.6023 33.168 38.2263 33.9383 38.2263H40.0594C40.8297 38.2263 41.4514 37.6023 41.4514 36.832C41.4514 36.0663 40.8297 35.4423 40.0594 35.4423H35.872V24.4206C35.872 23.5017 35.1269 22.7566 34.2103 22.7566ZM24.624 26.4777L24.6926 26.4846L26.7543 32.3703H22.56L24.624 26.4777Z" fill="#391B1B"/>
</svg>
