<svg width="25" height="31" viewBox="0 0 25 31" fill="none" xmlns="http://www.w3.org/2000/svg">
<path d="M0 25.6417V23.1277H3.01667V11.966C3.01667 9.86287 3.64099 7.98373 4.88964 6.32859C6.13804 4.6737 7.77621 3.62 9.80417 3.1675V2.2625C9.80417 1.63403 10.0241 1.09983 10.4641 0.659896C10.904 0.219965 11.4382 0 12.0667 0C12.6951 0 13.2293 0.219965 13.6693 0.659896C14.1092 1.09983 14.3292 1.63403 14.3292 2.2625V3.1675C16.3571 3.62 17.9953 4.6737 19.2437 6.32859C20.4923 7.98373 21.1167 9.86287 21.1167 11.966V23.1277H24.1333V25.6417H0ZM12.0667 30.1667C11.2371 30.1667 10.5269 29.8713 9.93615 29.2805C9.34538 28.6898 9.05 27.9796 9.05 27.15H15.0833C15.0833 27.9796 14.788 28.6898 14.1972 29.2805C13.6064 29.8713 12.8963 30.1667 12.0667 30.1667ZM5.53068 23.1277H18.6027V11.966C18.6027 10.156 17.9659 8.61422 16.6923 7.34068C15.4186 6.06689 13.8767 5.43 12.0667 5.43C10.2567 5.43 8.71477 6.06689 7.44098 7.34068C6.16745 8.61422 5.53068 10.156 5.53068 11.966V23.1277Z" fill="#999999" fill-opacity="0.6"/>
</svg>
