<svg width="48" height="77" viewBox="0 0 48 77" fill="none" xmlns="http://www.w3.org/2000/svg">
<path d="M0.244987 24.0281C0.244986 17.4982 2.5342 11.9583 7.11264 7.40828C11.6911 2.85828 17.2414 0.583277 23.7637 0.583277C30.2867 0.583276 35.8443 2.85828 40.4367 7.40828C45.0284 11.9583 47.3242 17.4982 47.3242 24.0281L47.3242 59.7333C47.3242 64.3673 45.6865 68.3066 42.4112 71.551C39.1358 74.7947 35.1915 76.4166 30.5783 76.4166C25.9651 76.4166 22.0205 74.7947 18.7445 71.551C15.4692 68.3066 13.8315 64.3673 13.8315 59.7333L13.8315 25.9239C13.8315 23.1857 14.8006 20.8475 16.7387 18.9094C18.6763 16.9718 21.0249 16.003 23.7846 16.003C26.5443 16.003 28.8929 16.9652 30.8305 18.8894C32.7686 20.8131 33.7377 23.1579 33.7377 25.9239L33.7377 60.9969L27.418 60.9969L27.418 25.9239C27.418 24.9343 27.0653 24.0866 26.3601 23.3807C25.6542 22.6748 24.7821 22.3219 23.7438 22.3219C22.7062 22.3219 21.848 22.6748 21.1693 23.3807C20.4906 24.0866 20.1512 24.9343 20.1512 25.9239L20.1512 59.7333C20.1721 62.6402 21.1883 65.0944 23.1997 67.0958C25.2119 69.0965 27.6758 70.0969 30.5916 70.0969C33.5074 70.0969 35.972 69.0952 37.9853 67.092C39.9987 65.0881 41.0054 62.6352 41.0054 59.7333L41.0054 24.0281C41.0263 19.2468 39.3522 15.1973 35.9833 11.8796C32.6138 8.56189 28.5371 6.90304 23.7533 6.90304C18.996 6.90304 14.9522 8.56189 11.6219 11.8796C8.29217 15.1973 6.60614 19.2468 6.5638 24.0281L6.5638 60.9969L0.24499 60.9969L0.244987 24.0281Z" fill="#88B14B"/>
</svg>
