<svg width="40" height="40" viewBox="0 0 40 40" fill="none" xmlns="http://www.w3.org/2000/svg">
<path d="M1.66667 35V31.6667H38.3333V35H1.66667ZM6.66667 30C5.75001 30 4.96528 29.6736 4.31251 29.0208C3.65973 28.3681 3.33334 27.5833 3.33334 26.6667V8.33333C3.33334 7.41667 3.65973 6.63194 4.31251 5.97917C4.96528 5.32639 5.75001 5 6.66667 5H33.3333C34.25 5 35.0347 5.32639 35.6875 5.97917C36.3403 6.63194 36.6667 7.41667 36.6667 8.33333V26.6667C36.6667 27.5833 36.3403 28.3681 35.6875 29.0208C35.0347 29.6736 34.25 30 33.3333 30H6.66667ZM6.66667 26.6667H33.3333V8.33333H6.66667V26.6667Z" fill="#111111"/>
</svg>
