<svg width="50" height="50" viewBox="0 0 50 50" fill="current" xmlns="http://www.w3.org/2000/svg">
<path d="M25.0001 43.75L21.9792 41.0417C18.4723 37.882 15.573 35.1563 13.2813 32.8646C10.9897 30.573 9.16675 28.5157 7.81258 26.6928C6.45841 24.8698 5.51223 23.1945 4.97404 21.6667C4.43585 20.1389 4.16675 18.5764 4.16675 16.9792C4.16675 13.7153 5.2605 10.9896 7.448 8.80212C9.6355 6.61462 12.3612 5.52087 15.6251 5.52087C17.4306 5.52087 19.1494 5.90282 20.7813 6.66671C22.4133 7.4306 23.8195 8.50699 25.0001 9.89587C26.1806 8.50699 27.5869 7.4306 29.2188 6.66671C30.8508 5.90282 32.5695 5.52087 34.3751 5.52087C37.639 5.52087 40.3647 6.61462 42.5522 8.80212C44.7397 10.9896 45.8334 13.7153 45.8334 16.9792C45.8334 18.5764 45.5643 20.1389 45.0261 21.6667C44.4879 23.1945 43.5417 24.8698 42.1876 26.6928C40.8334 28.5157 39.0105 30.573 36.7188 32.8646C34.4272 35.1563 31.5279 37.882 28.0209 41.0417L25.0001 43.75ZM25.0001 38.125C28.3334 35.1389 31.0765 32.5782 33.2292 30.4428C35.382 28.3073 37.0834 26.4497 38.3334 24.8698C39.5834 23.29 40.4515 21.8837 40.9376 20.6511C41.4237 19.4184 41.6667 18.1945 41.6667 16.9792C41.6667 14.8959 40.9723 13.1598 39.5834 11.7709C38.1945 10.382 36.4584 9.68754 34.3751 9.68754C32.7431 9.68754 31.2327 10.1476 29.8438 11.0677C28.4549 11.9879 27.5001 13.1598 26.9792 14.5834H23.0209C22.5001 13.1598 21.5452 11.9879 20.1563 11.0677C18.7674 10.1476 17.257 9.68754 15.6251 9.68754C13.5417 9.68754 11.8056 10.382 10.4167 11.7709C9.02786 13.1598 8.33342 14.8959 8.33342 16.9792C8.33342 18.1945 8.57647 19.4184 9.06258 20.6511C9.54869 21.8837 10.4167 23.29 11.6667 24.8698C12.9167 26.4497 14.6181 28.3073 16.7709 30.4428C18.9237 32.5782 21.6667 35.1389 25.0001 38.125Z" fill="#5F6368"/>
</svg>
