<svg width="30" height="30" viewBox="0 0 30 30" fill="none" xmlns="http://www.w3.org/2000/svg">
<path d="M17.1212 30L15 27.8788L20.3788 22.5L7.5 9.62121L2.12121 15L0 12.8788L2.12121 10.6818L0 8.56061L3.18182 5.37879L1.06061 3.18182L3.18182 1.06061L5.37879 3.18182L8.56061 0L10.6818 2.12121L12.8788 0L15 2.12121L9.62121 7.5L22.5 20.3788L27.8788 15L30 17.1212L27.8788 19.3182L30 21.4394L26.8182 24.6212L28.9394 26.8182L26.8182 28.9394L24.6212 26.8182L21.4394 30L19.3182 27.8788L17.1212 30Z" fill="#F19364"/>
</svg>
