<svg width="30" height="30" viewBox="0 0 30 30" fill="none" xmlns="http://www.w3.org/2000/svg">
<path d="M14.875 27.5L20.5625 12.5H23.1875L28.875 27.5H26.25L24.9063 23.6875H18.8438L17.5 27.5H14.875ZM5 23.75L3.25 22L9.5625 15.6875C8.83333 14.9583 8.17188 14.125 7.57813 13.1875C6.98438 12.25 6.4375 11.1875 5.9375 10H8.5625C8.97917 10.8125 9.39583 11.5208 9.8125 12.125C10.2292 12.7292 10.7292 13.3333 11.3125 13.9375C12 13.25 12.7135 12.2865 13.4531 11.0469C14.1927 9.80729 14.75 8.625 15.125 7.5H1.25V5H10V2.5H12.5V5H21.25V7.5H17.625C17.1875 9 16.5313 10.5417 15.6563 12.125C14.7813 13.7083 13.9167 14.9167 13.0625 15.75L16.0625 18.8125L15.125 21.375L11.3125 17.4688L5 23.75ZM19.625 21.5H24.125L21.875 15.125L19.625 21.5Z" fill="#DCBF30"/>
</svg>
