<svg width="100" height="80" viewBox="0 0 100 80" fill="none" xmlns="http://www.w3.org/2000/svg">
<path d="M28.5894 61.7C28.656 61.8333 28.706 61.95 28.7394 62.05C28.7894 62.15 28.856 62.2583 28.9394 62.375C28.9894 62.475 29.031 62.5833 29.0644 62.7C29.1144 62.8167 29.1644 62.9417 29.2144 63.075C29.2477 63.2417 29.2894 63.4167 29.3394 63.6C29.3894 63.7667 29.431 63.9333 29.4644 64.1C29.4977 64.3333 29.5227 64.5583 29.5394 64.775C29.5727 64.975 29.5894 65.1917 29.5894 65.425C29.5894 65.9917 29.5894 66.5417 29.5894 67.075C29.5894 67.6083 29.5727 68.1583 29.5394 68.725C29.5394 69.0417 29.5144 69.3583 29.4644 69.675C29.4644 69.725 29.4394 69.775 29.3894 69.825C29.3394 69.9583 29.2894 70.0917 29.2394 70.225C29.1894 70.3417 29.1477 70.4583 29.1144 70.575C29.081 70.7583 29.006 70.9 28.8894 71C28.7727 71.1 28.6394 71.1667 28.4894 71.2C28.3394 71.2667 28.181 71.325 28.0144 71.375C27.8477 71.425 27.681 71.4667 27.5144 71.5C27.431 71.5 27.3394 71.4917 27.2394 71.475C27.156 71.4583 27.0727 71.45 26.9894 71.45C26.8727 71.4333 26.7644 71.4167 26.6644 71.4C26.581 71.3833 26.481 71.3583 26.3644 71.325C26.181 71.2583 26.006 71.2333 25.8394 71.25C25.6894 71.25 25.5394 71.25 25.3894 71.25C25.256 71.25 25.131 71.2583 25.0144 71.275C24.9144 71.275 24.8144 71.3083 24.7144 71.375C24.681 71.4083 24.631 71.4333 24.5644 71.45C24.5144 71.45 24.4644 71.45 24.4144 71.45C24.131 71.5 23.8394 71.55 23.5394 71.6C23.256 71.65 22.9727 71.6917 22.6894 71.725C22.5727 71.725 22.4977 71.7167 22.4644 71.7C22.2477 71.7333 22.0644 71.725 21.9144 71.675C21.7644 71.6083 21.6394 71.525 21.5394 71.425C21.4394 71.325 21.356 71.2167 21.2894 71.1C21.2394 70.9833 21.206 70.8917 21.1894 70.825C21.156 70.725 21.1227 70.625 21.0894 70.525C21.056 70.4083 21.0394 70.2917 21.0394 70.175C21.0394 69.9417 21.031 69.725 21.0144 69.525C20.9977 69.3083 21.006 69.1 21.0394 68.9C21.0894 68.65 21.1144 68.4 21.1144 68.15C21.131 67.9 21.156 67.6583 21.1894 67.425C21.2227 67.0417 21.256 66.6667 21.2894 66.3C21.3394 65.9167 21.3644 65.525 21.3644 65.125C21.381 64.8917 21.3977 64.65 21.4144 64.4C21.4477 64.15 21.4894 63.875 21.5394 63.575C21.5894 63.2583 21.6477 62.9167 21.7144 62.55C21.781 62.1667 21.856 61.725 21.9394 61.225C22.0727 61.175 22.1977 61.1417 22.3144 61.125C22.4477 61.1083 22.5894 61.1 22.7394 61.1C23.0894 61.1 23.4477 61.1 23.8144 61.1C24.181 61.1 24.531 61.0833 24.8644 61.05C25.4477 61.05 26.0227 61.1167 26.5894 61.25L28.0894 61.5C28.1727 61.5167 28.256 61.5417 28.3394 61.575C28.4394 61.5917 28.5227 61.6333 28.5894 61.7ZM30.9394 62.775C31.156 62.675 31.3644 62.6167 31.5644 62.6C31.781 62.5833 31.9894 62.575 32.1894 62.575C32.3227 62.575 32.4477 62.5667 32.5644 62.55C32.681 62.5167 32.831 62.5167 33.0144 62.55L34.1894 62.625C34.256 62.625 34.3144 62.6333 34.3644 62.65C34.4144 62.65 34.4727 62.65 34.5394 62.65C34.656 62.6833 34.7644 62.7 34.8644 62.7C34.9644 62.7 35.056 62.7 35.1394 62.7C35.2227 62.6167 35.2644 62.5333 35.2644 62.45C35.281 62.3667 35.2894 62.2833 35.2894 62.2C35.2894 62.1167 35.2977 62 35.3144 61.85C35.331 61.6833 35.3394 61.5167 35.3394 61.35C35.356 61.1833 35.3644 61.025 35.3644 60.875C35.3644 60.7083 35.356 60.5833 35.3394 60.5C35.3394 60.3667 35.356 60.25 35.3894 60.15C35.4227 60.05 35.4477 59.9417 35.4644 59.825C35.5144 59.6917 35.606 59.6333 35.7394 59.65C35.7894 59.65 35.8394 59.6583 35.8894 59.675C35.956 59.6917 36.006 59.6833 36.0394 59.65C36.206 59.6 36.3477 59.6083 36.4644 59.675C36.5977 59.725 36.731 59.7917 36.8644 59.875C37.2644 60.1583 37.631 60.5167 37.9644 60.95C37.981 61 38.006 61.0833 38.0394 61.2C38.0727 61.3167 38.0977 61.4417 38.1144 61.575C38.1477 61.6917 38.1727 61.8083 38.1894 61.925C38.2227 62.0417 38.2477 62.1167 38.2644 62.15C38.331 62.2833 38.3644 62.3583 38.3644 62.375C38.331 62.5083 38.3227 62.65 38.3394 62.8C38.3727 62.95 38.3894 63.0917 38.3894 63.225C38.3727 63.2917 38.3644 63.3667 38.3644 63.45C38.381 63.5167 38.381 63.5833 38.3644 63.65C38.3644 64.0333 38.3727 64.35 38.3894 64.6C38.406 64.8333 38.4227 65.0333 38.4394 65.2C38.456 65.35 38.4727 65.475 38.4894 65.575C38.506 65.675 38.5227 65.7583 38.5394 65.825L38.4894 66.9C38.4894 67.0167 38.4894 67.125 38.4894 67.225C38.506 67.3083 38.4894 67.3917 38.4394 67.475L38.2394 70.25C38.256 70.3833 38.2394 70.5167 38.1894 70.65C38.156 70.7833 38.1394 70.9083 38.1394 71.025L37.9644 72.475L37.8144 73.05C37.781 73.1833 37.756 73.3167 37.7394 73.45C37.7394 73.5667 37.7394 73.7 37.7394 73.85C37.7394 74.0833 37.656 74.25 37.4894 74.35C37.4394 74.3833 37.3894 74.4417 37.3394 74.525C36.806 74.6417 36.3644 74.6667 36.0144 74.6C35.681 74.5167 35.406 74.3917 35.1894 74.225C34.9894 74.0417 34.8394 73.8417 34.7394 73.625C34.6394 73.3917 34.5727 73.175 34.5394 72.975C34.5227 72.6417 34.5144 72.3167 34.5144 72C34.531 71.6833 34.5394 71.3583 34.5394 71.025C34.5394 70.925 34.5477 70.8333 34.5644 70.75C34.581 70.6667 34.5894 70.5833 34.5894 70.5C34.6394 70.2167 34.6727 69.9583 34.6894 69.725C34.706 69.475 34.731 69.225 34.7644 68.975C34.7644 68.7417 34.6477 68.625 34.4144 68.625H34.1394L33.3894 68.525H31.7894C31.556 68.525 31.3477 68.4583 31.1644 68.325C31.031 68.2083 30.9144 68.1 30.8144 68C30.7144 67.9 30.5977 67.8 30.4644 67.7C30.281 67.5333 30.1727 67.3417 30.1394 67.125C30.1727 66.9917 30.2394 66.8917 30.3394 66.825C30.4394 66.7583 30.5477 66.7083 30.6644 66.675L34.8144 66.325C34.8977 66.1583 34.9477 65.9917 34.9644 65.825C34.981 65.6417 34.9894 65.4667 34.9894 65.3C34.856 65.2167 34.7144 65.175 34.5644 65.175C34.431 65.175 34.306 65.1583 34.1894 65.125C33.956 65.1417 33.781 65.15 33.6644 65.15C33.5477 65.1333 33.456 65.1167 33.3894 65.1C33.3227 65.0833 33.256 65.0667 33.1894 65.05C33.1394 65.0333 33.0644 65.0083 32.9644 64.975L32.2394 64.775C32.0394 64.6917 31.831 64.5667 31.6144 64.4C31.481 64.2667 31.3477 64.1417 31.2144 64.025C31.081 63.8917 30.9644 63.7417 30.8644 63.575C30.781 63.4083 30.7644 63.2583 30.8144 63.125L30.9394 62.775ZM39.0394 76.975C39.1227 77.0583 39.2144 77.1417 39.3144 77.225C39.4144 77.325 39.4727 77.45 39.4894 77.6C39.5227 77.7667 39.481 77.9667 39.3644 78.2C39.2644 78.45 39.056 78.7583 38.7394 79.125C38.4727 79.2083 38.206 79.25 37.9394 79.25C37.6894 79.2667 37.4227 79.275 37.1394 79.275C36.956 79.2417 36.7394 79.2333 36.4894 79.25C36.256 79.2667 36.0727 79.2333 35.9394 79.15H35.8144C35.581 79.1833 35.3644 79.175 35.1644 79.125C34.9644 79.0917 34.756 79.075 34.5394 79.075C34.356 79.0417 34.1644 79.025 33.9644 79.025C33.7644 79.025 33.556 79.025 33.3394 79.025H31.5644C31.4477 79.025 31.3227 79.025 31.1894 79.025C31.0727 79.025 30.9644 79.0083 30.8644 78.975H30.5894C30.306 78.975 30.0144 78.9833 29.7144 79C29.431 79.0167 29.1394 79.0417 28.8394 79.075C28.7394 79.075 28.6394 79.075 28.5394 79.075C28.4394 79.0917 28.2977 79.1083 28.1144 79.125C27.9477 79.1583 27.7227 79.2 27.4394 79.25C27.1727 79.3167 26.831 79.3917 26.4144 79.475C25.631 79.4583 25.0227 79.4417 24.5894 79.425C24.156 79.425 23.831 79.425 23.6144 79.425C23.3977 79.425 23.256 79.4167 23.1894 79.4C23.1227 79.4 23.0644 79.3917 23.0144 79.375L21.3644 78.5C21.331 78.3833 21.2894 78.2917 21.2394 78.225C21.206 78.1583 21.1727 78.0583 21.1394 77.925C21.1394 77.6917 21.1977 77.4833 21.3144 77.3C21.3644 77.2167 21.4144 77.1417 21.4644 77.075C21.531 77.0083 21.581 76.9333 21.6144 76.85C21.7644 76.7 21.881 76.5333 21.9644 76.35C22.0644 76.1667 22.156 75.975 22.2394 75.775C22.306 75.5917 22.3727 75.4333 22.4394 75.3C22.506 75.15 22.5727 74.9917 22.6394 74.825C22.7227 74.6917 22.8227 74.5583 22.9394 74.425C23.056 74.275 23.156 74.1333 23.2394 74C23.4227 73.7 23.6144 73.4333 23.8144 73.2C24.031 72.95 24.2394 72.7833 24.4394 72.7C24.656 72.6167 24.856 72.6417 25.0394 72.775C25.2394 72.9083 25.406 73.2083 25.5394 73.675L25.8394 74.575C25.756 75.0083 25.6727 75.35 25.5894 75.6C25.5227 75.85 25.456 76.05 25.3894 76.2C25.3394 76.3333 25.2977 76.4417 25.2644 76.525C25.2477 76.5917 25.2477 76.6583 25.2644 76.725L28.3894 76.45C28.606 76.45 28.8144 76.45 29.0144 76.45C29.2144 76.4333 29.4144 76.425 29.6144 76.425C30.1477 76.4083 30.5977 76.3917 30.9644 76.375C31.3477 76.3583 31.6727 76.35 31.9394 76.35C32.206 76.35 32.431 76.3583 32.6144 76.375C32.8144 76.375 33.006 76.3833 33.1894 76.4C33.456 76.4167 33.7227 76.4167 33.9894 76.4H36.3894C36.706 76.4 37.006 76.4167 37.2894 76.45C37.5894 76.4833 37.881 76.5583 38.1644 76.675C38.3144 76.7417 38.4644 76.8 38.6144 76.85C38.7644 76.9 38.906 76.9417 39.0394 76.975ZM23.5144 62.8C23.5144 62.85 23.506 62.9 23.4894 62.95C23.4727 62.9833 23.4644 63.0333 23.4644 63.1C23.4977 63.2833 23.5227 63.4333 23.5394 63.55C23.556 63.65 23.581 63.7917 23.6144 63.975L23.6644 64.625L23.5394 65.375C23.5227 65.7417 23.4977 66.1083 23.4644 66.475C23.431 66.825 23.3977 67.175 23.3644 67.525C23.3644 67.6083 23.3644 67.7 23.3644 67.8C23.3644 67.8833 23.356 67.9667 23.3394 68.05C23.2894 68.2833 23.2894 68.5167 23.3394 68.75C23.356 68.9333 23.3644 69.1083 23.3644 69.275C23.381 69.425 23.356 69.575 23.2894 69.725C23.256 69.7917 23.2394 69.9 23.2394 70.05C23.2394 70.1833 23.331 70.25 23.5144 70.25C23.7644 70.2167 23.9727 70.1917 24.1394 70.175C24.306 70.1417 24.4644 70.1167 24.6144 70.1C24.781 70.0667 24.9477 70.0417 25.1144 70.025C25.281 70.0083 25.4894 69.9833 25.7394 69.95H25.9644C26.1644 69.9833 26.3227 70.0083 26.4394 70.025C26.5727 70.0417 26.7477 70.0667 26.9644 70.1C27.0477 70.1 27.1227 70.1 27.1894 70.1C27.2727 70.0833 27.356 70.0333 27.4394 69.95C27.4727 69.7667 27.4977 69.5833 27.5144 69.4C27.531 69.2167 27.5477 69.0167 27.5644 68.8C27.5644 68.5167 27.5644 68.2833 27.5644 68.1C27.581 67.9 27.5894 67.7417 27.5894 67.625C27.606 67.4917 27.6144 67.3833 27.6144 67.3C27.631 67.2 27.6477 67.1083 27.6644 67.025V66.825C27.6477 66.4917 27.656 66.1417 27.6894 65.775C27.7227 65.4083 27.7394 65.05 27.7394 64.7C27.756 64.3333 27.731 63.9833 27.6644 63.65C27.5977 63.3167 27.4644 63.0167 27.2644 62.75C27.0477 62.75 26.8644 62.7583 26.7144 62.775C26.581 62.775 26.406 62.7583 26.1894 62.725C25.9227 62.6917 25.6977 62.675 25.5144 62.675C25.3477 62.675 25.1477 62.6583 24.9144 62.625C24.7644 62.625 24.631 62.625 24.5144 62.625C24.4144 62.625 24.3144 62.6333 24.2144 62.65C24.131 62.6667 24.031 62.6833 23.9144 62.7C23.8144 62.7167 23.681 62.75 23.5144 62.8ZM53.7798 69.15C53.7798 68.8333 53.7881 68.5167 53.8048 68.2C53.8215 67.8833 53.8465 67.5667 53.8798 67.25C53.9131 67.1 53.9298 66.95 53.9298 66.8C53.9465 66.65 53.9715 66.5083 54.0048 66.375C54.0381 66.0417 54.0548 65.7083 54.0548 65.375C54.0715 65.025 54.0715 64.6833 54.0548 64.35V63.875C54.0548 63.6583 54.0548 63.4583 54.0548 63.275C54.0548 63.075 54.0381 62.8667 54.0048 62.65C53.9715 62.5 53.9548 62.3583 53.9548 62.225C53.9548 62.0917 53.9881 61.9417 54.0548 61.775C54.0881 61.6417 54.1048 61.525 54.1048 61.425C54.1048 61.3083 54.1215 61.1833 54.1548 61.05L54.2798 60.325C54.2798 59.9917 54.3298 59.7833 54.4298 59.7C54.5465 59.6167 54.6798 59.6 54.8298 59.65C54.9965 59.7 55.1631 59.8 55.3298 59.95C55.5131 60.0833 55.6715 60.2 55.8048 60.3C55.9881 60.4 56.1465 60.5417 56.2798 60.725C56.3465 60.8083 56.3881 60.8917 56.4048 60.975C56.4381 61.0583 56.4715 61.1417 56.5048 61.225C56.5381 61.3083 56.5631 61.3917 56.5798 61.475C56.6131 61.5417 56.6465 61.625 56.6798 61.725C56.7298 61.9083 56.7631 62.075 56.7798 62.225C56.8131 62.3583 56.8131 62.5167 56.7798 62.7C56.7798 62.7333 56.7798 62.7833 56.7798 62.85C56.7965 62.9 56.8048 62.9583 56.8048 63.025C56.8548 63.025 56.8965 63.0333 56.9298 63.05C56.9798 63.0667 57.0215 63.075 57.0548 63.075C57.2048 63.075 57.4298 63.0917 57.7298 63.125C58.0465 63.1417 58.2798 63.1583 58.4298 63.175C58.5631 63.2083 58.6965 63.225 58.8298 63.225C58.9798 63.225 59.1215 63.2333 59.2548 63.25C59.4048 63.25 59.5048 63.3167 59.5548 63.45C59.7048 64.0833 59.5131 64.5333 58.9798 64.8C58.8465 64.8833 58.6798 64.9417 58.4798 64.975C58.2965 65.075 58.0965 65.125 57.8798 65.125C57.8465 65.125 57.7881 65.125 57.7048 65.125C57.6215 65.125 57.5381 65.125 57.4548 65.125C57.3715 65.125 57.2881 65.1333 57.2048 65.15C57.1381 65.15 57.0965 65.1583 57.0798 65.175C56.9798 65.225 56.9048 65.3083 56.8548 65.425C56.8548 65.5083 56.8465 65.5833 56.8298 65.65C56.8131 65.7 56.8048 65.7667 56.8048 65.85C56.8381 66.0833 56.8548 66.3083 56.8548 66.525C56.8715 66.7417 56.8465 66.9667 56.7798 67.2C56.7465 67.3667 56.7298 67.525 56.7298 67.675C56.7298 67.825 56.7298 67.975 56.7298 68.125C56.6298 68.625 56.6298 69.1167 56.7298 69.6C56.6631 69.7 56.6381 69.8167 56.6548 69.95C56.6715 70.0667 56.6631 70.1917 56.6298 70.325C56.5965 70.6083 56.5715 70.9 56.5548 71.2C56.5548 71.4833 56.5548 71.7667 56.5548 72.05C56.5548 72.45 56.3881 72.7583 56.0548 72.975C55.5048 73.3917 54.8715 73.4083 54.1548 73.025C54.0381 72.8917 53.9298 72.75 53.8298 72.6C53.7298 72.45 53.6631 72.2667 53.6298 72.05C53.6131 71.5333 53.5965 71.0333 53.5798 70.55C53.5798 70.0667 53.6465 69.6 53.7798 69.15ZM56.6298 79.3C56.5465 79.4 56.4465 79.5 56.3298 79.6C56.2131 79.7 56.0715 79.7667 55.9048 79.8C55.7548 79.85 55.5715 79.85 55.3548 79.8C55.1548 79.7667 54.9048 79.6583 54.6048 79.475C54.6048 79.4917 54.5798 79.5 54.5298 79.5C54.4798 79.45 54.4215 79.4167 54.3548 79.4C54.2215 79.25 54.1298 79.0917 54.0798 78.925C54.0298 78.7583 53.9881 78.575 53.9548 78.375C53.9548 78.0917 53.9715 77.8083 54.0048 77.525C54.0548 77.2583 54.1048 76.9917 54.1548 76.725C54.1881 76.5583 54.2131 76.4083 54.2298 76.275C54.2631 76.125 54.2798 75.975 54.2798 75.825C54.2798 75.7917 54.2548 75.775 54.2048 75.775C53.9881 75.7417 53.7715 75.7083 53.5548 75.675C53.3381 75.6417 53.1215 75.5917 52.9048 75.525C52.7715 75.475 52.6298 75.45 52.4798 75.45C52.3465 75.4333 52.2131 75.4167 52.0798 75.4C51.8965 75.3833 51.7048 75.3667 51.5048 75.35C51.3215 75.3167 51.1381 75.3 50.9548 75.3C50.8715 75.2833 50.7798 75.2667 50.6798 75.25C50.5965 75.2333 50.5215 75.2417 50.4548 75.275C50.2548 75.275 50.0631 75.2833 49.8798 75.3C49.6965 75.3167 49.5048 75.3417 49.3048 75.375C49.0715 75.4083 48.8215 75.4333 48.5548 75.45C48.3048 75.4667 48.0465 75.475 47.7798 75.475C47.4965 75.475 47.2048 75.4833 46.9048 75.5C46.6048 75.5 46.3131 75.5333 46.0298 75.6C45.8465 75.6333 45.6715 75.6583 45.5048 75.675C45.3381 75.675 45.1631 75.6917 44.9798 75.725H44.7798C44.6298 75.7917 44.4631 75.8167 44.2798 75.8C44.1131 75.7667 43.9631 75.725 43.8298 75.675C43.5965 75.6083 43.3798 75.5417 43.1798 75.475C42.9798 75.4083 42.7631 75.3417 42.5298 75.275C42.2298 75.1417 41.9715 74.9167 41.7548 74.6C41.8215 74.5667 41.8548 74.5167 41.8548 74.45C41.9048 74.25 42.0131 74.1333 42.1798 74.1C42.4631 73.9667 42.7548 73.85 43.0548 73.75C43.3715 73.6333 43.6965 73.55 44.0298 73.5C44.2631 73.4667 44.4798 73.45 44.6798 73.45C44.8965 73.4333 45.1131 73.45 45.3298 73.5H45.6048C45.7215 73.45 45.8465 73.45 45.9798 73.5C46.0965 73.5 46.1798 73.4833 46.2298 73.45C46.3131 73.45 46.3965 73.4417 46.4798 73.425C46.5798 73.4083 46.6715 73.4 46.7548 73.4C47.0381 73.3833 47.3131 73.3833 47.5798 73.4C47.8631 73.4 48.1298 73.4 48.3798 73.4C48.4965 73.4 48.5881 73.4083 48.6548 73.425C48.7381 73.4417 48.8215 73.45 48.9048 73.45C49.2215 73.5 49.5298 73.525 49.8298 73.525C50.1131 73.5417 50.3881 73.5583 50.6548 73.575C50.9381 73.5917 51.2215 73.6167 51.5048 73.65C51.6381 73.65 51.7715 73.65 51.9048 73.65C52.0381 73.65 52.1715 73.6583 52.3048 73.675C52.5881 73.7083 52.8465 73.7583 53.0798 73.825C53.3298 73.875 53.5798 73.925 53.8298 73.975H54.1048C54.3381 73.8917 54.5548 73.875 54.7548 73.925C54.9548 73.9583 55.1715 74.0167 55.4048 74.1L55.8048 74.2C56.1215 74.2667 56.3548 74.45 56.5048 74.75C56.5548 74.9333 56.6131 75.1083 56.6798 75.275C56.7465 75.4417 56.7798 75.6333 56.7798 75.85C56.7798 76.0833 56.7881 76.325 56.8048 76.575C56.8381 76.8083 56.8715 77.0417 56.9048 77.275C56.9048 77.6083 56.8881 77.9167 56.8548 78.2C56.8215 78.5 56.7631 78.8 56.6798 79.1C56.6465 79.1333 56.6298 79.1667 56.6298 79.2C56.6298 79.25 56.6298 79.2833 56.6298 79.3ZM49.7298 69.4V69.95C49.6798 70.6833 49.3381 71.225 48.7048 71.575C48.6548 71.6083 48.5965 71.6417 48.5298 71.675C48.4798 71.6917 48.4381 71.7167 48.4048 71.75C48.1215 71.9833 47.8381 72.1083 47.5548 72.125C47.2715 72.125 46.9715 72.0917 46.6548 72.025C46.4715 71.975 46.2965 71.9167 46.1298 71.85C45.9631 71.7833 45.7881 71.7333 45.6048 71.7C45.0881 71.5167 44.6715 71.2667 44.3548 70.95C44.1381 70.7167 43.9715 70.4667 43.8548 70.2C43.7381 69.9333 43.6965 69.6333 43.7298 69.3C43.7798 69.05 43.8215 68.8 43.8548 68.55C43.8881 68.3 43.9548 68.05 44.0548 67.8C44.1715 67.5167 44.3048 67.2583 44.4548 67.025C44.6215 66.775 44.8381 66.5417 45.1048 66.325C45.1215 66.3083 45.1465 66.2833 45.1798 66.25C45.2131 66.2167 45.2548 66.1917 45.3048 66.175C45.4715 66.0917 45.6381 66.0083 45.8048 65.925C45.9715 65.825 46.1465 65.725 46.3298 65.625C46.4131 65.5917 46.5131 65.5583 46.6298 65.525C46.7465 65.4917 46.8465 65.5 46.9298 65.55C46.9798 65.5667 47.0298 65.575 47.0798 65.575C47.1465 65.575 47.1965 65.575 47.2298 65.575C47.5631 65.6083 47.8548 65.7 48.1048 65.85C48.3548 66 48.5715 66.2 48.7548 66.45C49.1715 66.95 49.4381 67.4917 49.5548 68.075C49.6215 68.3083 49.6715 68.5417 49.7048 68.775C49.7381 68.9917 49.7465 69.2 49.7298 69.4ZM42.5048 65L41.0298 64.425C40.8298 64.3417 40.7298 64.1667 40.7298 63.9V63.425C40.7298 63.1917 40.8465 63.025 41.0798 62.925L41.9548 62.575C42.3381 62.4583 42.7131 62.3583 43.0798 62.275C43.4465 62.1917 43.8298 62.15 44.2298 62.15C44.3965 62.15 44.5631 62.15 44.7298 62.15C44.8965 62.15 45.0715 62.1417 45.2548 62.125C45.5548 62.125 45.7131 61.9667 45.7298 61.65C45.7631 61.55 45.7715 61.4417 45.7548 61.325C45.7381 61.2083 45.7131 61.1 45.6798 61C45.6465 60.8667 45.5965 60.7333 45.5298 60.6C45.4631 60.4667 45.4131 60.3417 45.3798 60.225C45.3465 60.1583 45.3381 60.0833 45.3548 60C45.3881 59.9 45.4381 59.8333 45.5048 59.8C45.5715 59.7667 45.6215 59.7333 45.6548 59.7C45.7048 59.65 45.7631 59.6 45.8298 59.55C46.0131 59.4667 46.1881 59.4667 46.3548 59.55C46.4881 59.6333 46.6131 59.7167 46.7298 59.8C46.8631 59.8833 46.9798 59.9667 47.0798 60.05C47.2131 60.1333 47.3298 60.2167 47.4298 60.3C47.5298 60.3833 47.6465 60.4667 47.7798 60.55C47.9798 60.6667 48.1298 60.8583 48.2298 61.125C48.3298 61.3417 48.3965 61.5917 48.4298 61.875C48.4298 61.9417 48.4631 62.0083 48.5298 62.075C48.5965 62.125 48.6715 62.15 48.7548 62.15C49.1548 62.1667 49.5465 62.2333 49.9298 62.35C50.3131 62.45 50.6965 62.5417 51.0798 62.625C51.2631 62.6583 51.4381 62.7167 51.6048 62.8C51.7881 62.8667 51.9715 62.9417 52.1548 63.025C52.2548 63.0917 52.3048 63.2 52.3048 63.35C52.2715 63.4333 52.2548 63.525 52.2548 63.625C52.2715 63.725 52.2881 63.8167 52.3048 63.9C52.3048 63.95 52.3131 64.0083 52.3298 64.075C52.3465 64.125 52.3631 64.1833 52.3798 64.25C52.3798 64.3 52.3631 64.35 52.3298 64.4C52.3131 64.45 52.2881 64.475 52.2548 64.475C52.0548 64.5083 51.8548 64.525 51.6548 64.525C51.4715 64.5083 51.2881 64.475 51.1048 64.425C50.7381 64.2917 50.3631 64.2 49.9798 64.15C49.6131 64.0833 49.2298 64.0083 48.8298 63.925C48.6131 63.8917 48.3881 63.8833 48.1548 63.9C47.9215 63.9 47.6881 63.9 47.4548 63.9C47.1881 63.9 46.9381 63.9083 46.7048 63.925C46.4715 63.925 46.2381 63.925 46.0048 63.925C45.7715 63.925 45.5465 63.95 45.3298 64C45.1298 64.05 44.9215 64.1083 44.7048 64.175C44.5881 64.2083 44.4715 64.2583 44.3548 64.325C44.2381 64.375 44.1131 64.4083 43.9798 64.425C43.7298 64.475 43.4715 64.5583 43.2048 64.675C43.0715 64.7417 42.9465 64.8 42.8298 64.85C42.7131 64.8833 42.6048 64.9333 42.5048 65ZM48.4048 68.75C48.4048 68.7333 48.4048 68.7 48.4048 68.65C48.4048 68.6 48.3881 68.5583 48.3548 68.525C48.2881 68.2417 48.2048 67.9833 48.1048 67.75C48.0215 67.5 47.9131 67.2583 47.7798 67.025C47.7298 66.975 47.6715 66.9167 47.6048 66.85C47.5548 66.7833 47.5048 66.7333 47.4548 66.7C47.3548 66.6167 47.2298 66.575 47.0798 66.575C46.9798 66.575 46.8715 66.6 46.7548 66.65C46.6548 66.6833 46.5631 66.7417 46.4798 66.825C46.3465 66.9583 46.2131 67.1167 46.0798 67.3C45.9631 67.4833 45.8381 67.65 45.7048 67.8C45.6715 67.8833 45.6381 67.9667 45.6048 68.05C45.5715 68.1333 45.5548 68.2167 45.5548 68.3V68.875C45.5548 69.075 45.6131 69.25 45.7298 69.4C45.9631 69.6833 46.2131 69.9167 46.4798 70.1C46.7631 70.2667 47.0631 70.4083 47.3798 70.525C47.5131 70.575 47.6548 70.525 47.8048 70.375C48.1548 69.8917 48.3548 69.35 48.4048 68.75ZM76.0202 78.1C75.8869 78.1 75.7202 78.1 75.5202 78.1C75.3369 78.1 75.1452 78.0917 74.9452 78.075C74.7452 78.075 74.5452 78.075 74.3452 78.075C74.1619 78.075 73.9952 78.075 73.8452 78.075C73.7785 78.075 73.7119 78.0667 73.6452 78.05C73.5952 78.05 73.5452 78.05 73.4952 78.05C73.3452 77.9667 73.1702 77.95 72.9702 78C72.8202 78.0333 72.6535 78.05 72.4702 78.05C72.3035 78.0667 72.1285 78.075 71.9452 78.075C71.6785 78.075 71.4285 78.1167 71.1952 78.2C71.1119 78.2167 71.0202 78.2333 70.9202 78.25C70.8369 78.2667 70.7369 78.275 70.6202 78.275C70.5369 78.3083 70.4285 78.325 70.2952 78.325C70.1785 78.325 70.0702 78.325 69.9702 78.325C69.7369 78.3583 69.4452 78.3833 69.0952 78.4C68.7619 78.4333 68.4119 78.45 68.0452 78.45C67.6952 78.4667 67.3452 78.475 66.9952 78.475C66.6619 78.475 66.3869 78.4667 66.1702 78.45C66.0702 78.45 65.9702 78.45 65.8702 78.45C65.7702 78.45 65.6785 78.4333 65.5952 78.4C65.4785 78.3667 65.3202 78.3417 65.1202 78.325C64.9369 78.3083 64.7369 78.2917 64.5202 78.275C64.3202 78.275 64.1202 78.275 63.9202 78.275C63.7369 78.275 63.5869 78.275 63.4702 78.275C63.0869 78.275 62.7285 78.225 62.3952 78.125C62.0785 78.025 61.7702 77.9 61.4702 77.75C61.1202 77.5167 60.8952 77.2167 60.7952 76.85C60.7952 76.7667 60.7869 76.6833 60.7702 76.6C60.7535 76.5 60.7369 76.4083 60.7202 76.325C60.7202 76.225 60.7952 76.1083 60.9452 75.975C61.1952 75.8083 61.4869 75.6833 61.8202 75.6C62.2035 75.5167 62.5702 75.4333 62.9202 75.35C63.2869 75.25 63.6619 75.175 64.0452 75.125C64.1952 75.1083 64.3869 75.1 64.6202 75.1C64.8535 75.0833 65.0869 75.075 65.3202 75.075C65.5535 75.075 65.7869 75.0833 66.0202 75.1C66.2535 75.1 66.4452 75.1083 66.5952 75.125C66.7952 75.1583 66.9952 75.1667 67.1952 75.15C67.4119 75.1167 67.6202 75.1083 67.8202 75.125C67.8869 75.125 67.9452 75.1 67.9952 75.05C68.0619 74.9833 68.1119 74.9167 68.1452 74.85C68.1785 74.7167 68.2035 74.5917 68.2202 74.475C68.2535 74.3583 68.2702 74.2333 68.2702 74.1C68.2369 73.55 68.2619 73 68.3452 72.45C68.4285 71.8833 68.4952 71.325 68.5452 70.775C68.5619 70.6417 68.5869 70.5167 68.6202 70.4C68.6535 70.2833 68.6785 70.1583 68.6952 70.025C68.7119 69.8417 68.7702 69.7 68.8702 69.6C68.9869 69.5 69.1202 69.4083 69.2702 69.325C69.4869 69.2083 69.6952 69.25 69.8952 69.45C70.0619 69.6333 70.2202 69.8167 70.3702 70C70.5369 70.1667 70.6952 70.3417 70.8452 70.525C71.0285 70.7083 71.1619 70.9583 71.2452 71.275L71.4952 72.075C71.5285 72.1083 71.5452 72.1583 71.5452 72.225C71.5452 72.2917 71.5452 72.3417 71.5452 72.375C71.5785 72.5583 71.5952 72.7417 71.5952 72.925C71.6119 73.1083 71.6452 73.2917 71.6952 73.475C71.6619 73.675 71.6619 73.875 71.6952 74.075C71.7452 74.275 71.7702 74.4667 71.7702 74.65C71.7535 74.7167 71.7785 74.7833 71.8452 74.85C71.9119 74.9167 71.9869 74.9583 72.0702 74.975C72.5202 75.025 72.9369 75.0167 73.3202 74.95C73.4035 74.9167 73.4869 74.8917 73.5702 74.875C73.6702 74.8583 73.7619 74.85 73.8452 74.85C74.1285 74.85 74.4702 74.85 74.8702 74.85C75.2702 74.85 75.6035 74.8417 75.8702 74.825C76.3035 74.7917 76.7619 74.8333 77.2452 74.95C77.7452 75.0667 78.1952 75.1667 78.5952 75.25C78.9119 75.3667 79.1869 75.5333 79.4202 75.75C79.4702 75.8333 79.5202 75.9417 79.5702 76.075C79.6369 76.1917 79.6369 76.3167 79.5702 76.45C79.5369 76.6 79.5035 76.7583 79.4702 76.925C79.4535 77.075 79.4119 77.225 79.3452 77.375C79.2619 77.475 79.1869 77.5667 79.1202 77.65C79.0535 77.7333 78.9785 77.7917 78.8952 77.825C78.6619 77.9083 78.4535 77.9833 78.2702 78.05C78.0869 78.1167 77.8952 78.1333 77.6952 78.1H76.0202ZM70.4952 60.2H70.5952C70.7785 60.3 70.9035 60.4083 70.9702 60.525C71.0535 60.7583 71.1202 60.9667 71.1702 61.15C71.1869 61.2667 71.2369 61.4167 71.3202 61.6C71.3702 61.7333 71.3619 61.8583 71.2952 61.975C71.2452 61.9917 71.1869 62.0583 71.1202 62.175C70.8702 62.4917 70.6202 62.8 70.3702 63.1C70.1202 63.4 69.8785 63.7167 69.6452 64.05L69.3952 64.25C69.0119 64.5333 68.6202 64.825 68.2202 65.125C67.8369 65.4083 67.4535 65.725 67.0702 66.075L67.0452 66.1C66.6119 66.3833 66.2119 66.7083 65.8452 67.075C65.4952 67.425 65.1202 67.7583 64.7202 68.075C64.6202 68.1583 64.5202 68.2417 64.4202 68.325C64.3202 68.4083 64.2119 68.475 64.0952 68.525C63.9452 68.6417 63.7785 68.725 63.5952 68.775C63.4119 68.825 63.2285 68.825 63.0452 68.775C62.9785 68.775 62.9119 68.7833 62.8452 68.8C62.7785 68.8167 62.7119 68.825 62.6452 68.825C62.5119 68.825 62.3869 68.775 62.2702 68.675C62.1535 68.5583 62.0785 68.4333 62.0452 68.3C62.0452 68.2333 62.0452 68.1667 62.0452 68.1C62.0452 68.0333 62.0619 67.9667 62.0952 67.9C62.2452 67.25 62.5869 66.75 63.1202 66.4L63.4452 66.175C63.7285 65.975 64.0119 65.7583 64.2952 65.525C64.5785 65.2917 64.8535 65.0583 65.1202 64.825L65.2952 64.7C65.3785 64.6167 65.4535 64.525 65.5202 64.425C65.6035 64.3083 65.6952 64.2083 65.7952 64.125C66.0785 63.9417 66.3535 63.7333 66.6202 63.5C66.9035 63.2667 67.1952 63.0583 67.4952 62.875C67.7285 62.7083 67.9619 62.55 68.1952 62.4C68.4285 62.2333 68.6619 62.0583 68.8952 61.875C69.1785 61.6417 69.4452 61.4 69.6952 61.15C69.9452 60.9 70.1619 60.6083 70.3452 60.275C70.3952 60.225 70.4452 60.2 70.4952 60.2ZM70.4452 63.9C70.5285 63.9333 70.5952 63.95 70.6452 63.95C70.7119 63.95 70.7785 63.9667 70.8452 64C70.9285 64.0333 71.0035 64.075 71.0702 64.125C71.1535 64.1583 71.2369 64.1833 71.3202 64.2C71.7202 64.3833 72.1119 64.5583 72.4952 64.725C72.8952 64.875 73.3035 65.0167 73.7202 65.15C73.9035 65.1833 74.0785 65.2417 74.2452 65.325C74.4285 65.3917 74.6119 65.4583 74.7952 65.525C75.0785 65.6583 75.3702 65.7833 75.6702 65.9C75.9869 66 76.3035 66.0667 76.6202 66.1C76.7035 66.1 76.7785 66.1167 76.8452 66.15C76.9285 66.1667 77.0119 66.1917 77.0952 66.225C77.2785 66.2417 77.4369 66.2917 77.5702 66.375C77.7202 66.4417 77.8702 66.5417 78.0202 66.675L78.2952 66.925C78.5119 67.125 78.6452 67.375 78.6952 67.675C78.6952 67.825 78.6785 67.9417 78.6452 68.025L78.3952 68.475C78.2285 68.7917 77.9952 68.8917 77.6952 68.775C77.1285 68.7083 76.5619 68.5917 75.9952 68.425C75.6619 68.3583 75.3369 68.2667 75.0202 68.15C74.7202 68.0167 74.4119 67.8833 74.0952 67.75C73.8619 67.65 73.6285 67.5583 73.3952 67.475C73.1785 67.375 72.9452 67.275 72.6952 67.175C72.3619 67.025 72.0452 66.85 71.7452 66.65C71.4619 66.45 71.1785 66.225 70.8952 65.975C70.6785 65.8083 70.5202 65.6167 70.4202 65.4C70.3202 65.1833 70.2535 64.9333 70.2202 64.65C70.1869 64.5667 70.1785 64.475 70.1952 64.375C70.2119 64.275 70.2202 64.175 70.2202 64.075C70.2535 64.0583 70.2869 64.0333 70.3202 64C70.3535 63.9667 70.3952 63.9333 70.4452 63.9Z" fill="#88B14B"/>
<path d="M83.0266 54.7032C83.0266 52.7248 82.9243 50.7959 83.0777 48.8669C83.18 47.1358 82.362 46.7896 80.7771 46.839C74.3865 47.0369 67.9959 47.2347 61.6564 47.3336C48.5174 47.5315 35.3783 47.6304 22.2393 47.7788C21.5746 47.7788 20.91 47.7788 19.9898 47.7788C19.4274 50.1529 18.9162 52.4775 18.3538 54.8022C18.0982 54.7527 17.8937 54.7527 17.638 54.7032C17.5358 52.4281 17.3824 50.1529 17.2802 47.9766C13.3947 47.0863 9.7137 46.2455 6.03272 45.4047C6.03272 45.2068 6.03272 44.9595 6.03272 44.7617C7.71984 44.4155 9.45808 44.1187 11.2474 43.7725C11.2986 41.2005 12.6789 40.3102 15.184 40.9038C15.3885 41.9424 15.593 42.9317 15.7975 43.8714C16.1554 43.8219 16.4622 43.8219 16.82 43.7725C16.82 38.3813 16.82 33.0396 16.82 27.7968C13.2924 26.214 9.61145 24.2356 5.72597 22.7023C4.19223 22.1088 2.30061 22.4056 0 22.2572C3.11861 20.8723 5.7771 20.0809 8.02658 18.6466C12.6789 15.7284 16.3088 11.821 18.9162 6.97392C19.9387 5.04496 21.4213 3.41277 23.0573 1.63219C23.8241 4.55036 26.2781 4.40198 28.272 4.9955C44.3252 9.69424 60.1738 8.16097 75.9202 3.61061C77.1984 3.21493 78.1186 1.48381 79.499 0C81.9018 4.30306 82.5665 9.69424 87.0654 12.8597C91.3088 15.8273 95.4499 18.795 100 22.0099C95.092 20.2788 91.6155 23.4442 87.5767 24.5324C85.3783 25.1259 83.3333 27.0549 81.1861 27.1043C76.8405 27.1538 73.0061 28.8849 68.865 29.5279C68.7628 29.5279 68.7117 29.6268 68.5583 29.6763C68.0982 34.4739 67.638 39.3705 67.1268 44.4649C68.5583 44.4649 70.2454 44.4649 71.9325 44.4649C71.3701 41.1511 72.2904 40.3103 75.7669 41.2005C75.6646 42.2887 75.5624 43.4263 75.409 44.7122C77.8119 44.8606 80.1636 45.009 82.2086 45.1574C82.8221 38.5791 80.2659 31.9514 84.5092 26.1646C84.8671 26.1646 85.2249 26.1151 85.5828 26.1151C85.8384 27.4505 86.2474 28.786 86.2474 30.1214C86.1963 34.5728 85.9918 38.9748 85.9407 43.4263C85.9407 44.1187 86.3497 44.8112 86.5542 45.5036C86.7587 45.4047 86.9632 45.3058 87.1166 45.2563C87.1166 44.0198 86.7076 42.5854 87.2699 41.6951C87.6789 41.0027 89.2638 41.0027 90.8998 40.5081C90.593 42.4865 90.3885 43.9209 90.1329 45.5531C91.9223 45.8498 93.9162 46.196 95.91 46.5423C95.91 46.6906 95.8589 46.8885 95.8589 47.0369C93.3538 47.0369 90.8487 47.2347 88.3436 46.9874C86.2986 46.7896 85.4806 47.482 85.2249 49.3615C84.9693 51.241 84.4581 53.1205 84.0491 55C83.7423 54.8022 83.3844 54.7527 83.0266 54.7032ZM56.6973 10.4856C49.4887 12.5135 42.5869 10.8813 36.6053 10.7824C33.8446 16.1241 31.3395 21.0701 28.7832 26.0656C31.8507 26.4119 35.3783 26.5603 38.8548 27.3022C41.5133 27.8462 41.9223 26.4613 42.229 24.6808C42.7403 21.7131 42.9959 18.696 43.7117 15.7779C44.0695 14.393 45.2965 13.2059 46.1145 11.9694C46.5235 12.1178 46.9836 12.3156 47.3926 12.464C47.7505 17.6574 46.4213 22.6034 44.4785 27.3022C50.0511 27.3022 55.5215 27.3022 61.5542 27.3022C57.8221 21.8615 55.5726 16.6682 56.6973 10.4856ZM60.5828 44.1187C65.4908 44.6628 65.3885 44.7122 64.8773 40.2608C64.4683 36.8975 64.3149 33.5342 64.0593 30.616C57.9755 30.8633 51.6871 31.1106 45.3988 31.3085C43.9673 31.3579 42.5358 31.1601 41.0532 31.1601C39.4172 31.1601 38.7014 31.8525 38.6503 33.5342C38.5481 36.9469 38.2413 40.3597 38.0368 43.9703C38.3436 44.0198 38.9059 44.2176 39.4683 44.2671C40.1329 44.3165 40.7975 44.2671 41.411 44.2671C41.6667 40.9532 42.3313 40.4586 45.5521 41.2005C45.5521 42.1898 45.5521 43.2284 45.5521 44.2176C49.3354 44.2176 52.9652 44.2176 56.5951 44.2176C56.4928 41.0522 57.1575 40.5081 60.4806 41.1511C60.5828 42.0414 60.5828 43.0306 60.5828 44.1187ZM9.61145 21.4658C13.7014 22.6034 17.8937 23.7905 22.137 24.8786C24.6933 25.5216 25.818 24.6808 26.8916 22.2077C28.681 18.152 30.726 14.1951 32.6176 10.2383C29.6012 9.19964 26.4826 8.11151 23.5174 7.07284C21.6258 9.74371 19.9386 12.7113 17.638 15.1349C15.3374 17.5585 12.3722 19.339 9.61145 21.4658ZM35.6851 44.0692C35.3272 39.4694 35.0204 35.1169 34.7137 30.5665C30.2658 30.0225 25.6135 29.4784 20.5521 28.8849C20.5521 33.732 20.5521 38.6781 20.5521 43.8714C22.3926 44.0198 24.2843 44.1187 26.1247 44.2671C26.8916 40.8049 27.3006 40.5576 30.5215 41.1511C30.5215 42.1403 30.5215 43.1295 30.5215 44.3165C32.4131 44.2176 34.0491 44.1187 35.6851 44.0692ZM59.6115 10.1888C60.6339 15.3822 61.6053 20.5755 62.7301 25.7689C62.8323 26.2635 63.957 26.9559 64.5194 26.857C69.0184 26.4119 73.5174 25.8183 78.681 25.1754C72.8528 20.0315 68.2004 14.9865 69.1206 7.3696C66.2065 8.25989 63.2924 9.15018 59.6115 10.1888ZM77.3006 4.15468C76.0225 4.64928 74.9489 5.14388 73.8753 5.49011C72.3415 5.98471 72.0859 6.67716 72.3415 8.35881C73.2106 14.2446 76.8916 18.696 79.8057 23.5926C80.1125 24.0872 81.2372 24.4829 81.8507 24.3345C86.1452 23.2959 90.4397 22.1583 94.7341 21.0207C86.0941 18.1025 79.6523 13.2554 77.3006 4.15468Z" fill="#88B14B"/>
</svg>
