<svg width="38" height="42" viewBox="0 0 38 42" fill="none" xmlns="http://www.w3.org/2000/svg">
<path d="M31.4167 41.8333C29.6806 41.8333 28.2049 41.2257 26.9897 40.0104C25.7744 38.7951 25.1667 37.3194 25.1667 35.5833C25.1667 35.375 25.2188 34.8889 25.323 34.125L10.6876 25.5833C10.132 26.1041 9.48966 26.5121 8.7605 26.8073C8.03133 27.1024 7.25008 27.25 6.41675 27.25C4.68064 27.25 3.20494 26.6423 1.98966 25.427C0.774387 24.2118 0.166748 22.7361 0.166748 21C0.166748 19.2638 0.774387 17.7882 1.98966 16.5729C3.20494 15.3576 4.68064 14.75 6.41675 14.75C7.25008 14.75 8.03133 14.8975 8.7605 15.1927C9.48966 15.4878 10.132 15.8958 10.6876 16.4166L25.323 7.87496C25.2536 7.6319 25.2101 7.39753 25.1928 7.17183C25.1754 6.94614 25.1667 6.6944 25.1667 6.41663C25.1667 4.68052 25.7744 3.20482 26.9897 1.98954C28.2049 0.774265 29.6806 0.166626 31.4167 0.166626C33.1529 0.166626 34.6286 0.774265 35.8438 1.98954C37.0591 3.20482 37.6667 4.68052 37.6667 6.41663C37.6667 8.15274 37.0591 9.62843 35.8438 10.8437C34.6286 12.059 33.1529 12.6666 31.4167 12.6666C30.5834 12.6666 29.8022 12.5191 29.073 12.2239C28.3438 11.9288 27.7015 11.5208 27.1459 11L12.5105 19.5416C12.5799 19.7847 12.6233 20.0191 12.6407 20.2448C12.6581 20.4704 12.6667 20.7222 12.6667 21C12.6667 21.2777 12.6581 21.5295 12.6407 21.7552C12.6233 21.9809 12.5799 22.2152 12.5105 22.4583L27.1459 31C27.7015 30.4791 28.3438 30.0711 29.073 29.776C29.8022 29.4809 30.5834 29.3333 31.4167 29.3333C33.1529 29.3333 34.6286 29.9409 35.8438 31.1562C37.0591 32.3715 37.6667 33.8472 37.6667 35.5833C37.6667 37.3194 37.0591 38.7951 35.8438 40.0104C34.6286 41.2257 33.1529 41.8333 31.4167 41.8333ZM31.4167 37.6666C32.007 37.6666 32.5018 37.467 32.9011 37.0677C33.3004 36.6684 33.5001 36.1736 33.5001 35.5833C33.5001 34.993 33.3004 34.4982 32.9011 34.0989C32.5018 33.6996 32.007 33.5 31.4167 33.5C30.8265 33.5 30.3317 33.6996 29.9324 34.0989C29.5331 34.4982 29.3334 34.993 29.3334 35.5833C29.3334 36.1736 29.5331 36.6684 29.9324 37.0677C30.3317 37.467 30.8265 37.6666 31.4167 37.6666ZM6.41675 23.0833C7.00703 23.0833 7.50182 22.8836 7.90112 22.4843C8.30043 22.085 8.50008 21.5902 8.50008 21C8.50008 20.4097 8.30043 19.9149 7.90112 19.5156C7.50182 19.1163 7.00703 18.9166 6.41675 18.9166C5.82647 18.9166 5.33168 19.1163 4.93237 19.5156C4.53307 19.9149 4.33341 20.4097 4.33341 21C4.33341 21.5902 4.53307 22.085 4.93237 22.4843C5.33168 22.8836 5.82647 23.0833 6.41675 23.0833ZM31.4167 8.49996C32.007 8.49996 32.5018 8.30031 32.9011 7.901C33.3004 7.5017 33.5001 7.0069 33.5001 6.41663C33.5001 5.82635 33.3004 5.33156 32.9011 4.93225C32.5018 4.53295 32.007 4.33329 31.4167 4.33329C30.8265 4.33329 30.3317 4.53295 29.9324 4.93225C29.5331 5.33156 29.3334 5.82635 29.3334 6.41663C29.3334 7.0069 29.5331 7.5017 29.9324 7.901C30.3317 8.30031 30.8265 8.49996 31.4167 8.49996Z" fill="#5F6368"/>
</svg>
