<svg width="148" height="138" viewBox="0 0 148 138" fill="none" xmlns="http://www.w3.org/2000/svg">
<path d="M74.0001 112.5C87.9584 112.5 99.7813 107.63 109.469 97.8906C119.156 88.151 124 76.3542 124 62.5C124 59.2708 123.74 56.1719 123.219 53.2031C122.698 50.2344 121.865 47.3438 120.719 44.5312C117.906 46.3021 114.938 47.6562 111.813 48.5938C108.688 49.5312 105.458 50 102.125 50C96.5001 50 91.2136 48.724 86.2657 46.1719C81.3178 43.6198 77.2292 40 74.0001 35.3125C70.7709 40 66.6824 43.6198 61.7345 46.1719C56.7865 48.724 51.5001 50 45.8751 50C42.5417 50 39.3126 49.5312 36.1876 48.5938C33.0626 47.6562 30.0938 46.3021 27.2813 44.5312C26.1355 47.3438 25.3022 50.2344 24.7813 53.2031C24.2605 56.1719 24.0001 59.2708 24.0001 62.5C24.0001 76.3542 28.8699 88.151 38.6095 97.8906C48.349 107.63 60.1459 112.5 74.0001 112.5ZM55.2501 76.5625C57.4376 76.5625 59.2865 75.8073 60.797 74.2969C62.3074 72.7865 63.0626 70.9375 63.0626 68.75C63.0626 66.5625 62.3074 64.7135 60.797 63.2031C59.2865 61.6927 57.4376 60.9375 55.2501 60.9375C53.0626 60.9375 51.2136 61.6927 49.7032 63.2031C48.1928 64.7135 47.4376 66.5625 47.4376 68.75C47.4376 70.9375 48.1928 72.7865 49.7032 74.2969C51.2136 75.8073 53.0626 76.5625 55.2501 76.5625ZM92.7501 76.5625C94.9376 76.5625 96.7865 75.8073 98.297 74.2969C99.8074 72.7865 100.563 70.9375 100.563 68.75C100.563 66.5625 99.8074 64.7135 98.297 63.2031C96.7865 61.6927 94.9376 60.9375 92.7501 60.9375C90.5626 60.9375 88.7136 61.6927 87.2032 63.2031C85.6928 64.7135 84.9376 66.5625 84.9376 68.75C84.9376 70.9375 85.6928 72.7865 87.2032 74.2969C88.7136 75.8073 90.5626 76.5625 92.7501 76.5625ZM45.8751 37.5C51.9167 37.5 57.073 35.3646 61.3438 31.0938C65.6147 26.8229 67.7501 21.6667 67.7501 15.625V12.8125C60.6667 13.6458 54.1563 15.8854 48.2188 19.5312C42.2813 23.1771 37.3334 27.8125 33.3751 33.4375C35.2501 34.6875 37.2292 35.6771 39.3126 36.4062C41.3959 37.1354 43.5834 37.5 45.8751 37.5ZM102.125 37.5C104.417 37.5 106.604 37.1615 108.688 36.4844C110.771 35.8073 112.75 34.7917 114.625 33.4375C110.667 27.8125 105.745 23.1771 99.8595 19.5312C93.974 15.8854 87.4376 13.6458 80.2501 12.8125V15.625C80.2501 21.6667 82.3855 26.8229 86.6563 31.0938C90.9272 35.3646 96.0834 37.5 102.125 37.5ZM12.7501 137.5C9.10425 137.5 6.03133 136.146 3.53133 133.438C1.03133 130.729 -0.0624186 127.552 0.250081 123.906L5.87508 62.1875C6.70841 53.4375 9.07821 45.2604 12.9845 37.6562C16.8907 30.0521 21.8907 23.4635 27.9845 17.8906C34.0782 12.3177 41.0574 7.94271 48.922 4.76562C56.7865 1.58854 65.1459 0 74.0001 0C82.8542 0 91.2136 1.58854 99.0782 4.76562C106.943 7.94271 113.922 12.3177 120.016 17.8906C126.109 23.4635 131.109 30.0521 135.016 37.6562C138.922 45.2604 141.292 53.4375 142.125 62.1875L147.75 123.906C148.063 127.552 146.969 130.729 144.469 133.438C141.969 136.146 138.896 137.5 135.25 137.5H12.7501ZM74.0001 125C60.9792 125 49.2605 121.38 38.8438 114.141C28.4272 106.901 20.8751 97.6042 16.1876 86.25L12.7501 125H135.25L131.813 86.25C127.125 97.6042 119.599 106.901 109.234 114.141C98.8699 121.38 87.1251 125 74.0001 125ZM74.0001 125H135.25H12.7501H74.0001Z" fill="#5F6368"/>
</svg>
