<svg width="30" height="30" viewBox="0 0 30 30" fill="none" xmlns="http://www.w3.org/2000/svg">
<path d="M28.75 26.25V23.75H1.25V26.25H28.75ZM25 22.5C25.6875 22.5 26.276 22.2552 26.7656 21.7656C27.2552 21.276 27.5 20.6875 27.5 20V6.25C27.5 5.5625 27.2552 4.97396 26.7656 4.48438C26.276 3.99479 25.6875 3.75 25 3.75H5C4.3125 3.75 3.72396 3.99479 3.23438 4.48438C2.74479 4.97396 2.5 5.5625 2.5 6.25V20C2.5 20.6875 2.74479 21.276 3.23438 21.7656C3.72396 22.2552 4.3125 22.5 5 22.5H25ZM25 20H5V6.25H25V20Z" fill="#88B14B"/>
</svg>
