<svg width="45" height="41" viewBox="0 0 45 41" fill="none" xmlns="http://www.w3.org/2000/svg">
<path d="M22.2917 40.9031C19.7108 40.9031 17.2832 40.4141 15.0089 39.4359C12.7345 38.4578 10.7554 37.1267 9.07135 35.4427C7.38733 33.7587 6.05052 31.7795 5.06094 29.5052C4.07135 27.2309 3.57656 24.7948 3.57656 22.1969C3.57656 19.599 4.07135 17.1655 5.06094 14.8964C6.05052 12.6276 7.38733 10.6455 9.07135 8.95C10.7554 7.25417 12.7345 5.91736 15.0089 4.93958C17.2832 3.96146 19.7108 3.4724 22.2917 3.4724C24.8729 3.4724 27.3007 3.96146 29.575 4.93958C31.8493 5.91736 33.8342 7.25417 35.5297 8.95C37.2252 10.6455 38.562 12.6276 39.5401 14.8964C40.5182 17.1655 41.0073 19.599 41.0073 22.1969C41.0073 24.7948 40.5182 27.2309 39.5401 29.5052C38.562 31.7795 37.2252 33.7587 35.5297 35.4427C33.8342 37.1267 31.8493 38.4578 29.575 39.4359C27.3007 40.4141 24.8729 40.9031 22.2917 40.9031ZM28.4375 30.7641L30.8682 28.3333L24.1323 21.5974V11.8057H20.6599V22.9865L28.4375 30.7641ZM8.64583 0L11.0766 2.43073L2.43073 10.8682L0 8.4375L8.64583 0ZM35.9375 0L44.5833 8.4375L42.1531 10.8682L33.5073 2.43073L35.9375 0ZM22.2932 37.4307C26.5401 37.4307 30.142 35.9517 33.099 32.9938C36.0563 30.0354 37.5349 26.4328 37.5349 22.1859C37.5349 17.9394 36.0559 14.3375 33.0979 11.3802C30.1396 8.42326 26.537 6.94479 22.2901 6.94479C18.0436 6.94479 14.4417 8.42378 11.4844 11.3818C8.52743 14.3401 7.04896 17.9425 7.04896 22.1891C7.04896 26.4359 8.52795 30.0378 11.4859 32.9948C14.4443 35.9521 18.0467 37.4307 22.2932 37.4307Z" fill="#5F6368"/>
</svg>
